<svg xmlns="http://www.w3.org/2000/svg" xmlns:xlink="http://www.w3.org/1999/xlink" xmlns:fi="http://pattern.flaticon.com/" x="0" y="0" width="1920" height="960" viewBox="0 0 1680 840"><rect x="0px" y="0px" width="100%" height="100%" opacity="1" fill="#ababfd"/><defs><g transform="matrix(0.09969014674425125 0 0 0.09969014674425125 65.5635445676744 69.5635445676744)" id="L1_16"><path d="M419.13,114.83c-16.255,32.119-39.754,60.279-68.577,81.979   c-27.189,20.47-58.58,34.731-91.848,41.862c62.542,27.979,135.53,25.304,196.166-8.024   C454.045,187.985,441.014,148.264,419.13,114.83z" fill="#ffffff"/><path d="M319.343,322.694c-12.67-6.569-24.674-14.278-35.878-22.998   c32.451,36.051,76.463,61.069,125.435,69.75c5.044-6.509,9.74-13.301,14.042-20.36   C386.941,348.319,351.381,339.306,319.343,322.694z" fill="#ffffff"/><path d="M273.116,350.553c-20.477-27.197-34.739-58.598-41.868-91.877   c-14.027,31.207-20.593,65.196-19.079,99.5c0.181,4.093-2.956,7.559-7.027,7.812c0.387,5.006,0.94,9.993,1.655,14.953   c4.022-0.635,7.843,2.057,8.56,6.09c4.242,23.888,12.286,46.688,23.92,67.842c42.663-0.825,82.384-13.857,115.819-35.741   C322.977,402.874,294.816,379.375,273.116,350.553z" fill="#ffffff"/><path d="M170.23,283.465c-36.051,32.451-61.069,76.463-69.75,125.435   c6.505,5.041,13.292,9.734,20.346,14.033c0.768-35.997,9.797-71.555,26.406-103.59C153.801,306.673,161.509,294.669,170.23,283.465   z" fill="#ffffff"/><path d="M150.583,147.231c12.67,6.569,24.674,14.278,35.878,22.998   c-32.451-36.051-76.463-61.069-125.435-69.75c-5.042,6.506-9.735,13.294-14.035,20.349C83,121.602,118.547,130.621,150.583,147.231   z" fill="#ffffff"/><path d="M119.373,273.116c27.189-20.47,58.58-34.731,91.848-41.862   c-62.542-27.979-135.53-25.304-196.166,8.024c0.826,42.663,13.857,82.383,35.741,115.817   C67.051,322.977,90.55,294.816,119.373,273.116z" fill="#ffffff"/><path d="M196.81,119.372c20.471,27.189,34.731,58.58,41.862,91.849   c27.98-62.542,25.305-135.531-8.024-196.167c-42.662,0.826-82.383,13.857-115.817,35.741   C146.949,67.051,175.109,90.549,196.81,119.372z" fill="#ffffff"/><path d="M360.225,96.027c4.026-11.399,7.117-23.153,9.22-35.002c-6.504-5.041-13.291-9.733-20.344-14.032   c-0.768,35.997-9.797,71.555-26.406,103.59c-6.658,12.84-14.486,24.996-23.351,36.329c20.147-17.996,36.967-39.698,49.446-64.219   c1.86-3.654,6.303-5.126,9.972-3.334c2.125-4.537,4.099-9.143,5.921-13.81C360.855,104.125,358.86,99.894,360.225,96.027z" fill="#ffffff"/><path d="M205.007,365.999c-0.113,0.005-0.226,0.007-0.337,0.007c-3.99,0-7.31-3.144-7.487-7.169   c-1.516-34.359,4.555-68.419,17.662-100.008c-50.52,42.247-80.059,105.742-79.05,172.437c26.222,13.301,55.45,21.495,86.37,23.278   c-10.297-20.435-17.549-42.203-21.578-64.892c-0.724-4.079,1.995-7.972,6.073-8.696c0.042-0.008,0.084-0.009,0.127-0.016   c-0.714-4.96-1.266-9.947-1.652-14.953C205.092,365.99,205.05,365.997,205.007,365.999z" fill="#e7453f"/><path d="M87.355,397.905c7.565-35.181,23.149-68.371,45.504-96.672   c13.477-17.061,29.26-32.102,46.817-44.747c-51.957,20.636-95.05,60.688-118.975,112.537   C68.72,379.422,77.639,389.094,87.355,397.905z" fill="#e7453f"/><path d="M119.323,196.96c31.53-0.281,62.74,5.851,91.777,17.889   c-42.247-50.522-105.744-80.063-172.441-79.054c-13.301,26.222-21.494,55.448-23.278,86.368   C47.559,205.969,83.222,197.286,119.323,196.96z" fill="#e7453f"/><path d="M168.693,132.859c17.061,13.477,32.102,29.26,44.747,46.817   c-20.636-51.957-60.689-95.05-112.537-118.975c-10.4,8.02-20.073,16.938-28.883,26.655   C107.202,94.92,140.392,110.504,168.693,132.859z" fill="#e7453f"/><path d="M272.966,119.323c0.284,31.499-5.851,62.73-17.892,91.78   c50.525-42.247,80.067-105.746,79.058-172.444c-26.222-13.301-55.448-21.494-86.368-23.278   C263.957,47.559,272.64,83.222,272.966,119.323z" fill="#e7453f"/><path d="M382.562,72.013c-2.112,9.813-4.844,19.529-8.192,29.01c-1.088,3.079-3.982,5.004-7.072,5.004   c-0.829,0-1.672-0.139-2.498-0.43c-0.04-0.014-0.077-0.033-0.117-0.048c-1.822,4.667-3.797,9.273-5.921,13.81   c0.038,0.018,0.077,0.032,0.114,0.051c3.691,1.879,5.161,6.395,3.283,10.086c-17.103,33.608-41.83,62.264-71.919,83.949   c51.962-20.635,95.059-60.689,118.986-112.541C401.203,90.5,392.282,80.825,382.562,72.013z" fill="#e7453f"/><path d="M350.603,272.966c-0.698,0.006-1.399,0.009-2.097,0.009c-30.785,0-61.274-6.122-89.678-17.895   c42.248,50.522,105.749,80.069,172.438,79.052c13.301-26.222,21.495-55.448,23.278-86.369   C422.367,263.957,386.703,272.64,350.603,272.966z" fill="#e7453f"/><path d="M301.232,337.066c-17.061-13.477-32.102-29.26-44.747-46.816   c20.636,51.956,60.689,95.049,112.536,118.975c10.4-8.02,20.073-16.938,28.883-26.655   C362.724,375.006,329.534,359.421,301.232,337.066z" fill="#e7453f"/><path d="M401.106,68.819C356.728,24.44,297.724,0,234.963,0S113.198,24.44,68.819,68.819   S0,172.202,0,234.963s24.44,121.765,68.819,166.144s103.383,68.819,166.144,68.819s121.765-24.44,166.144-68.819   s68.819-103.383,68.819-166.144S445.485,113.198,401.106,68.819z M408.9,369.446c-48.972-8.681-92.984-33.698-125.435-69.75   c11.204,8.72,23.208,16.429,35.878,22.998c32.038,16.611,67.599,25.625,103.599,26.392   C418.641,356.145,413.944,362.937,408.9,369.446z M239.277,454.871c-11.635-21.154-19.678-43.954-23.92-67.842   c-0.717-4.033-4.537-6.725-8.56-6.09c-0.052,0.008-0.094,0.01-0.137,0.017c-4.078,0.725-6.797,4.617-6.073,8.696   c4.029,22.689,11.281,44.456,21.578,64.892c-30.921-1.783-60.148-9.977-86.37-23.278c-1.009-66.695,28.53-130.19,79.05-172.437   c-13.107,31.589-19.177,65.648-17.662,100.008c0.178,4.025,3.497,7.169,7.487,7.169c0.111,0,0.224-0.002,0.337-0.007   c0.043-0.002,0.085-0.01,0.128-0.012c4.079-0.253,7.215-3.719,7.034-7.812c-1.514-34.303,5.052-68.293,19.079-99.5   c7.129,33.279,21.392,64.68,41.868,91.877c21.7,28.823,49.861,52.322,81.98,68.577C321.661,441.014,281.94,454.046,239.277,454.871   z M100.48,408.9c8.681-48.972,33.698-92.984,69.75-125.435c-8.72,11.204-16.429,23.208-22.998,35.878   c-16.609,32.035-25.638,67.594-26.406,103.59C113.772,418.634,106.985,413.941,100.48,408.9z M61.026,100.48   c48.972,8.681,92.984,33.698,125.435,69.75c-11.204-8.72-23.208-16.429-35.878-22.998c-32.036-16.61-67.583-25.63-103.592-26.403   C51.291,113.774,55.984,106.986,61.026,100.48z M230.647,15.055c33.329,60.636,36.004,133.625,8.024,196.167   c-7.131-33.269-21.392-64.66-41.862-91.849c-21.7-28.823-49.861-52.321-81.979-68.576   C148.264,28.912,187.985,15.881,230.647,15.055z M258.705,238.672c33.268-7.131,64.659-21.392,91.848-41.862   c28.823-21.7,52.322-49.861,68.577-81.979c21.884,33.434,34.915,73.155,35.741,115.817   C394.234,263.976,321.246,266.651,258.705,238.672z M334.131,38.66c1.009,66.698-28.533,130.197-79.058,172.444   c12.041-29.051,18.177-60.282,17.892-91.78c-0.326-36.101-9.009-71.765-25.203-103.941C278.683,17.165,307.91,25.359,334.131,38.66   z M38.66,135.794c66.697-1.008,130.194,28.532,172.441,79.054c-29.037-12.038-60.247-18.17-91.777-17.889   c-36.101,0.326-71.765,9.009-103.941,25.203C17.165,191.243,25.359,162.016,38.66,135.794z M211.221,231.254   c-33.268,7.131-64.659,21.392-91.848,41.862c-28.823,21.7-52.322,49.861-68.577,81.979   c-21.884-33.434-34.915-73.155-35.741-115.817C75.691,205.949,148.679,203.275,211.221,231.254z M431.266,334.132   c-66.689,1.017-130.189-28.53-172.438-79.052c28.404,11.772,58.893,17.895,89.678,17.895c0.697,0,1.398-0.003,2.097-0.009   c36.101-0.326,71.765-9.009,103.941-25.203C452.76,278.683,444.567,307.91,431.266,334.132z M290.24,213.445   c30.089-21.684,54.815-50.341,71.919-83.949c1.878-3.691,0.408-8.207-3.283-10.086c-0.038-0.019-0.076-0.033-0.114-0.051   c-3.668-1.792-8.112-0.32-9.972,3.334c-12.479,24.521-29.299,46.223-49.446,64.219c8.865-11.333,16.694-23.489,23.351-36.329   c16.609-32.035,25.638-67.594,26.406-103.59c7.053,4.299,13.84,8.992,20.344,14.032c-2.103,11.85-5.194,23.603-9.22,35.002   c-1.365,3.866,0.63,8.098,4.457,9.522c0.04,0.015,0.077,0.034,0.117,0.048c0.826,0.291,1.669,0.43,2.498,0.43   c3.09,0,5.984-1.925,7.072-5.004c3.349-9.482,6.08-19.197,8.192-29.01c9.72,8.813,18.642,18.488,26.664,28.891   C385.298,152.755,342.201,192.81,290.24,213.445z M100.904,60.701c51.848,23.925,91.901,67.018,112.537,118.975   c-12.645-17.556-27.686-33.34-44.747-46.817c-28.302-22.355-61.491-37.939-96.672-45.504   C80.831,77.639,90.504,68.72,100.904,60.701z M179.676,256.485c-17.556,12.645-33.34,27.686-46.817,44.747   c-22.355,28.302-37.94,61.491-45.504,96.672c-9.717-8.81-18.635-18.483-26.655-28.883   C84.626,317.174,127.719,277.121,179.676,256.485z M369.022,409.225c-51.847-23.926-91.9-67.019-112.536-118.975   c12.645,17.556,27.686,33.339,44.747,46.816c28.302,22.355,61.491,37.939,96.672,45.504   C389.094,392.287,379.422,401.206,369.022,409.225z" fill="#3d2a20"/></g><g transform="matrix(0.09051166474819183 0 0 0.09051166474819183 156.71213870495558 280.7121387049556)" id="L1_17"><path d="M454.515,209.911c-5.787-36.798-34.805-65.245-70.567-69.179   c-16.788-1.848-27.679-6.645-37.592-16.56c-9.915-9.914-14.712-20.806-16.559-37.592c-2.339-21.261-13.127-40.363-30.377-53.788   c-17.91-13.938-41.095-20.132-63.602-16.995c-43.343,6.044-73.769,46.52-72.344,96.241c0.466,16.26,3.89,32.847,10.043,49.331   c15.095-8.781,32.365-13.501,50.057-13.501c4.583,0,9.215,0.322,13.768,0.957c25.447,3.548,48.034,17.315,63.601,38.765   c14.734,20.302,22.429,46.144,21.667,72.763c-0.372,12.974-2.452,26.107-6.124,39.216c14.062,4.548,28.152,7.09,42.005,7.486   c48.232,1.362,88.526-27.89,95.805-69.6c0.694-3.979,4.408-6.661,8.371-6.137c0.462-5.096,0.488-10.153,0.117-15.131   C458.809,216.645,455.143,213.9,454.515,209.911z M293.483,57.206c-1.483,1.733-3.586,2.624-5.702,2.624   c-1.726,0-3.459-0.592-4.873-1.802c-9.828-8.411-22.397-13.043-35.393-13.043c-4.142,0-7.5-3.357-7.5-7.5s3.358-7.5,7.5-7.5   c16.569,0,32.602,5.912,45.146,16.646C295.808,49.325,296.176,54.059,293.483,57.206z M388.942,163.917   c-0.422,3.838-3.671,6.681-7.446,6.681c-0.274,0-0.551-0.016-0.829-0.046c-23.591-2.595-40.716-10.356-55.525-25.167   c-14.808-14.808-22.569-31.932-25.165-55.522c-0.453-4.117,2.518-7.822,6.635-8.275c4.11-0.452,7.822,2.518,8.275,6.635   c2.197,19.968,8.631,34.326,20.861,46.557c12.232,12.232,26.591,18.667,46.559,20.863   C386.425,156.094,389.395,159.799,388.942,163.917z" fill="#ab7be1"/><path d="M382.307,155.641c-19.967-2.196-34.327-8.631-46.559-20.863   c-12.23-12.23-18.665-26.589-20.861-46.557c-0.453-4.117-4.165-7.087-8.275-6.635c-4.117,0.453-7.088,4.158-6.635,8.275   c2.596,23.591,10.357,40.715,25.165,55.522c14.809,14.811,31.934,22.572,55.525,25.167c0.278,0.03,0.555,0.046,0.829,0.046   c3.774,0,7.023-2.843,7.446-6.681C389.395,159.799,386.425,156.094,382.307,155.641z" fill="#ffffff"/><path d="M292.661,46.631c-12.543-10.734-28.577-16.646-45.146-16.646c-4.142,0-7.5,3.357-7.5,7.5   s3.358,7.5,7.5,7.5c12.995,0,25.564,4.632,35.393,13.043c1.414,1.21,3.147,1.802,4.873,1.802c2.115,0,4.218-0.891,5.702-2.624   C296.176,54.059,295.808,49.325,292.661,46.631z" fill="#ffffff"/><path d="M462.972,231.356c-0.102-0.018-0.204-0.024-0.306-0.037c-3.963-0.524-7.677,2.159-8.371,6.137   c-7.278,41.71-47.572,70.962-95.805,69.6c-13.853-0.397-27.944-2.939-42.005-7.486c3.672-13.109,5.752-26.242,6.124-39.216   c0.762-26.619-6.932-52.461-21.667-72.763c-15.566-21.449-38.153-35.217-63.601-38.765c-4.552-0.635-9.185-0.957-13.768-0.957   c-17.693,0-34.962,4.72-50.057,13.501c-6.153-16.484-9.577-33.071-10.043-49.331c-1.424-49.722,29.001-90.197,72.344-96.241   c22.507-3.137,45.692,3.057,63.602,16.995c17.25,13.425,28.038,32.527,30.377,53.788c1.847,16.786,6.645,27.678,16.559,37.592   c9.914,9.915,20.805,14.712,37.592,16.56c35.762,3.934,64.78,32.381,70.567,69.179c0.627,3.989,4.294,6.734,8.268,6.276   c0.102-0.012,0.204-0.016,0.307-0.032c4.092-0.644,6.887-4.482,6.244-8.574c-6.835-43.467-41.273-77.087-83.745-81.759   c-13.41-1.476-21.168-4.797-28.625-12.255c-7.459-7.459-10.78-15.218-12.256-28.627c-2.786-25.325-15.598-48.049-36.074-63.984   c-21.09-16.414-48.387-23.712-74.886-20.014c-25.447,3.548-48.034,17.314-63.601,38.764   c-14.734,20.303-22.429,46.144-21.667,72.763c0.547,19.078,4.77,38.501,12.361,57.685c-0.641,0.521-1.29,1.031-1.919,1.569   c-18.38,15.729-29.937,37.429-32.541,61.103c-1.476,13.409-4.797,21.167-12.256,28.626c-7.458,7.458-15.216,10.779-28.625,12.255   c-25.326,2.786-48.05,15.599-63.986,36.075C5.1,330.872-2.194,358.167,1.501,384.668c3.517,25.218,16.45,46.861,37.403,62.592   c19.519,14.652,44.565,22.724,70.527,22.726c1.208,0,2.397-0.018,3.598-0.052c47.841-1.37,97.854-25.788,140.823-68.757   c27.088-27.089,46.795-56.977,58.012-87.355c15.421,4.992,30.919,7.791,46.198,8.229c1.242,0.035,2.478,0.053,3.71,0.053   c54.103,0,98.921-34.043,107.3-82.068C469.783,235.954,467.052,232.068,462.972,231.356z M16.357,382.595   c-3.139-22.51,3.056-45.691,16.994-63.602c13.425-17.25,32.528-28.039,53.789-30.378c16.787-1.848,27.678-6.645,37.592-16.559   c9.915-9.914,14.712-20.805,16.559-37.592c4.49-40.816,39.864-71.597,82.283-71.597c3.893,0,7.828,0.273,11.696,0.813   c43.343,6.044,73.769,46.52,72.344,96.242c-1.26,43.998-24.121,90.396-64.37,130.646c-40.25,40.25-86.648,63.11-130.646,64.37   c-1.06,0.03-2.089,0.021-3.167,0.046C61.349,454.981,22.205,424.537,16.357,382.595z" fill="#3d2a20"/><path d="M243.244,390.569c40.25-40.25,63.11-86.647,64.37-130.646c1.424-49.723-29.001-90.198-72.344-96.242   c-3.869-0.539-7.804-0.813-11.696-0.813c-42.418,0-77.792,30.78-82.283,71.597c-1.847,16.787-6.645,27.678-16.559,37.592   c-9.914,9.914-20.805,14.711-37.592,16.559c-21.261,2.339-40.364,13.128-53.789,30.378c-13.938,17.91-20.133,41.092-16.994,63.602   c5.848,41.941,44.992,72.386,93.074,72.39c1.078-0.024,2.107-0.016,3.167-0.046C156.596,453.679,202.994,430.819,243.244,390.569z    M178.427,194.516c12.543-10.734,28.577-16.646,45.146-16.646c4.142,0,7.5,3.357,7.5,7.5s-3.358,7.5-7.5,7.5   c-12.995,0-25.564,4.632-35.393,13.043c-1.414,1.21-3.148,1.802-4.873,1.802c-2.116,0-4.218-0.89-5.702-2.624   C174.912,201.944,175.28,197.21,178.427,194.516z M90.42,318.436c-0.278,0.03-0.555,0.046-0.829,0.046   c-3.775,0-7.023-2.842-7.446-6.681c-0.453-4.117,2.518-7.822,6.635-8.275c19.967-2.196,34.327-8.631,46.559-20.862   c12.23-12.231,18.665-26.59,20.861-46.558c0.453-4.117,4.156-7.076,8.275-6.635c4.117,0.453,7.088,4.158,6.635,8.275   c-2.596,23.591-10.357,40.715-25.165,55.523C131.137,308.08,114.012,315.841,90.42,318.436z" fill="#a3e175"/><path d="M171.111,237.747c0.453-4.117-2.518-7.822-6.635-8.275c-4.12-0.441-7.822,2.518-8.275,6.635   c-2.197,19.968-8.631,34.326-20.861,46.558c-12.232,12.231-26.591,18.666-46.559,20.862c-4.118,0.453-7.088,4.158-6.635,8.275   c0.422,3.839,3.671,6.681,7.446,6.681c0.274,0,0.551-0.016,0.829-0.046c23.591-2.595,40.716-10.356,55.525-25.166   C160.754,278.462,168.515,261.337,171.111,237.747z" fill="#ffffff"/><path d="M183.307,207.714c1.725,0,3.459-0.592,4.873-1.802c9.828-8.411,22.397-13.043,35.393-13.043   c4.142,0,7.5-3.357,7.5-7.5s-3.358-7.5-7.5-7.5c-16.569,0-32.602,5.912-45.146,16.646c-3.147,2.693-3.515,7.428-0.822,10.574   C179.088,206.825,181.191,207.714,183.307,207.714z" fill="#ffffff"/></g><g transform="matrix(0.15289217233657837 0 0 0.15289217233657837 248.6665783236433 166.85949516296387)" id="L1_20"><path d="m204.636719 68.398438.820312 1.234374.835938-1.226562c15.011719-21.960938 38.253906-35.464844 62.714843-36.636719-14.65625-19.265625-36.636718-31.589843-61.289062-31.769531-25.042969-.179688-47.507812 12.203125-62.441406 31.78125 23.394531 2.027344 45.242187 15.386719 59.359375 36.617188zm0 0" fill="#abebff"/><path d="m199.578125 262.96875v123.460938l15-.066407v-123.394531zm0 0" fill="#c7c8ca"/><path d="m274.261719 433h-26.707031c-7.773438 0-14.066407-2.492188-18.707032-7.410156l-.960937-1.019532-12.285157 23.429688 14.636719 26.980469h7.527344c5.585937 0 10.15625-4.535157 10.15625-10.082031 0-5.542969 4.570313-10.078126 10.15625-10.078126h16.183594zm0 0" fill="#ffe2b8"/><path d="m215.921875 411.839844c-1.324219 0-3.324219 2.851562-3.324219 7.148437v4.15625l5.839844-11.304687zm0 0" fill="#e0e0e0"/><path d="m222.210938 487.445312-10.980469-20.230468-.785157 1.988281c-1.414062 3.574219-4.816406 5.882813-8.667968 5.882813h-3.128906l-6.703126 12.359374-2.84375 15.71875c-.738281 4.078126 1.96875 7.980469 6.042969 8.714844.453125.082032.902344.121094 1.347657.121094 3.554687 0 6.714843-2.542969 7.371093-6.164062l3.214844-17.773438 3.214844 17.773438c.734375 4.074218 4.636719 6.78125 8.714843 6.042968 4.074219-.734375 6.78125-4.636718 6.042969-8.714844zm0 0" fill="#e0e0e0"/><path d="m230.480469 386.363281 33.265625-135.839843-9.28125-19.042969-1.855469 1.449219-37.570313 153.433593zm0 0" fill="#e0e0e0"/><path d="m188.851562 396.132812.199219-.742187c1.277344-4.777344 5.304688-8.25 10.09375-8.90625l-37.558593-153.398437-2.632813-2.078126-8.816406 18.390626 35.929687 146.734374zm0 0" fill="#e0e0e0"/><g fill="#c7c8ca"><path d="m282.242188 286.859375-50.855469 99.503906 6.945312.019531c3.128907.171876 5.953125 1.550782 8.03125 3.636719l49.445313-96.746093zm0 0"/><path d="m187.761719 396.132812-56.097657-109.765624-13.625 6.300781 52.878907 103.464843zm0 0"/><path d="m182.722656 475.085938-14.019531 25.835937c-1.972656 3.644531-.625 8.195313 3.015625 10.171875 3.644531 1.976562 8.195312.625 10.171875-3.015625l17.898437-32.992187zm0 0"/><path d="m245.449219 500.921875-28.714844-52.929687 11.898437-22.695313c-3.132812-3.4375-5.519531-8.003906-7.117187-13.726563l-.203125-.730468h-2.355469l-7.359375 14.242187v.378907c0 1.394531-.234375 2.785156-.703125 4.140624l-.027343.546876c.152343.683593.230468 1.371093.230468 2.035156v6.851562c0 4.257813-2.898437 7.957032-7.046875 8.992188v1.941406c4.148438 1.035156 7.046875 4.730469 7.046875 8.988281v6.851563c0 .894531-.132812 1.753906-.371094 2.570312l21.539063 39.699219c1.359375 2.503906 3.9375 3.921875 6.601563 3.921875 1.207031 0 2.433593-.292969 3.566406-.90625 3.640625-1.976562 4.992187-6.53125 3.015625-10.171875zm0 0"/></g><path d="m163.632812 35.769531c12.738282-18.773437 32.066407-31.8125 54.175782-35.003906-3.304688-.480469-6.671875-.7382812-10.089844-.765625-25.046875-.179688-47.511719 12.207031-62.449219 31.789062 6.265625.539063 12.421875 1.878907 18.363281 3.980469zm0 0" fill="#76d8ff"/><path d="m285.890625 31.90625c-31.71875-5.839844-62.871094 9.601562-81.023437 36.847656l2.84375 4.695313c21.257812.152343 41.179687 9.402343 56.101562 26.042969 8.433594 9.402343 14.695312 20.53125 18.527344 32.65625 15.308594-13.425782 34.535156-21.210938 54.609375-21.210938 4.640625 0 9.207031.449219 13.6875 1.292969-1.535157-39.5625-27.535157-73.476563-64.746094-80.324219zm0 0" fill="#ffe2b8"/><path d="m207.753906 73.453125c4.785156.035156 9.496094.558594 14.105469 1.496094 13.265625-23.71875 35.875-39.972657 60.996094-43.53125-30.664063-4.347657-60.425781 10.960937-78 37.335937 1.011719 1.535156 1.980469 3.097656 2.898437 4.699219zm0 0" fill="#eac092"/><path d="m76.066406 110.691406c20.445313 0 40.148438 8.125 55.6875 22.066406 10.808594-34.441406 40.617188-59.3125 75.425782-59.3125l.53125.003907c.410156.003906.816406.03125 1.226562.042969-15.921875-28.171876-45.402344-45.765626-77.183594-42.628907-39.855468 3.933594-69.742187 39.132813-71.855468 81.609375 5.261718-1.179687 10.664062-1.78125 16.167968-1.78125zm0 0" fill="#ff99a3"/><path d="m76.066406 110.691406c1.601563 0 3.195313.066406 4.785156.167969 2.710938-40.648437 30.875-74.277344 68.679688-79.605469-5.792969-.828125-11.742188-.984375-17.777344-.390625-39.855468 3.933594-69.742187 39.132813-71.855468 81.609375 5.261718-1.179687 10.664062-1.78125 16.167968-1.78125zm0 0" fill="#ff788c"/><path d="m367.074219 116.289062c-28.535157-12.636718-61.214844-5.765624-85.066407 14.882813 3.167969 9.644531 4.796876 19.933594 4.71875 30.5-.203124 28.59375-13.054687 54.476563-33.09375 70.457031 5.351563 15.734375 15.148438 29.476563 28.675782 39.015625-1.441406 1.074219-2.632813 2.515625-3.402344 4.277344-2.355469 5.394531.121094 11.667969 5.527344 14.011719l10.765625 4.679687c5.40625 2.347657 11.695312-.121093 14.046875-5.515625.773437-1.769531 1.015625-3.636718.816406-5.425781 37.09375 7.613281 77.179688-13.875 94.679688-53.210937 19.914062-44.753907 3.046874-95.644532-37.667969-113.671876zm0 0" fill="#ff99a3"/><path d="m253.636719 232.125c4.796875 14.09375 13.167969 26.589844 24.585937 35.894531-9.652344-11.664062-15.839844-26.183593-17.992187-41.785156-2.101563 2.085937-4.296875 4.058594-6.59375 5.890625zm0 0" fill="#ff788c"/><path d="m367.074219 116.289062c-28.535157-12.636718-61.214844-5.765624-85.066407 14.882813 1.765626 5.371094 3.046876 10.941406 3.824219 16.652344 24.152344-25.460938 60.390625-35.03125 91.660157-21.1875 6.132812 2.71875 11.714843 6.191406 16.71875 10.265625-7.207032-8.695313-16.320313-15.824219-27.136719-20.613282zm0 0" fill="#ff788c"/><path d="m317.046875 229.367188c-.792969-.347657-1.398437-.96875-1.714844-1.761719l-13.746093-34.359375c-1.609376-4.023438-1.546876-8.414063.175781-12.363282 1.722656-3.949218 4.902343-6.988281 8.949219-8.550781 4.046874-1.566406 8.476562-1.476562 12.480468.265625 3.996094 1.734375 7.082032 4.90625 8.695313 8.929688l2.886719 7.207031 7.253906-2.800781c4.050781-1.566406 8.480468-1.476563 12.480468.261718 3.996094 1.734376 7.085938 4.90625 8.695313 8.933594 1.609375 4.015625 1.546875 8.40625-.175781 12.359375-1.722656 3.945313-4.902344 6.988281-8.945313 8.554688l-34.578125 13.375c-.796875.304687-1.671875.289062-2.457031-.050781zm0 0" fill="#fe3745"/><path d="m332.207031 222.351562-13.742187-34.355468c-1.613282-4.027344-1.546875-8.414063.171875-12.367188.609375-1.386718 1.402343-2.65625 2.34375-3.792968-3.386719-.9375-6.953125-.785157-10.269531.496093-4.046876 1.5625-7.226563 4.601563-8.949219 8.550781-1.722657 3.949219-1.785157 8.339844-.175781 12.363282l13.746093 34.359375c.316407.792969.921875 1.414062 1.714844 1.761719.785156.339843 1.660156.355468 2.457031.050781l14.128906-5.464844c-.644531-.363281-1.148437-.910156-1.425781-1.601563zm0 0" fill="#cf043c"/><path d="m159.753906 231.703125c-19.972656-16.199219-32.535156-42.304687-32.324218-71.171875.070312-10.089844 1.714843-19.777344 4.65625-28.796875-24.386719-21.621094-58.25-28.664063-87.371094-15.148437-40.386719 18.738281-56.351563 69.917968-35.652344 114.3125 18.191406 39.023437 58.652344 59.800781 95.609375 51.539062-.171875 1.792969.105469 3.652344.910156 5.410156 2.445313 5.347656 8.777344 7.707032 14.140625 5.265625l10.683594-4.863281c5.363281-2.441406 7.726562-8.761719 5.277344-14.109375-.796875-1.746094-2.015625-3.167969-3.476563-4.214844 12.992188-9.511719 22.375-22.933593 27.546875-38.222656zm0 0" fill="#def9ff"/><path d="m29.910156 230.898438c-20.699218-44.394532-4.734375-95.574219 35.652344-114.3125 6.796875-3.15625 13.855469-5.1875 20.988281-6.175782-14.027343-1.902344-28.433593-.046875-41.835937 6.175782-40.386719 18.738281-56.351563 69.917968-35.652344 114.3125 17.214844 36.925781 54.363281 57.496093 89.617188 52.605468-28.242188-3.835937-54.941407-22.941406-68.769532-52.605468zm0 0" fill="#abebff"/><path d="m96.734375 228.761719c.785156-.355469 1.378906-.992188 1.683594-1.792969l13.136719-34.59375c1.539062-4.050781 1.398437-8.4375-.394532-12.359375-1.792968-3.917969-5.023437-6.898437-9.101562-8.386719-4.074219-1.5-8.5-1.328125-12.46875.476563-3.96875 1.808593-6.996094 5.035156-8.542969 9.085937l-2.753906 7.257813-7.304688-2.675781c-4.078125-1.496094-8.503906-1.324219-12.472656.480468-3.96875 1.808594-7 5.035156-8.539063 9.085938-1.539062 4.046875-1.394531 8.433594.398438 12.351562 1.792969 3.921875 5.023438 6.90625 9.09375 8.398438l34.808594 12.765625c.804687.292969 1.679687.261719 2.457031-.09375zm0 0" fill="#fe3745"/><path d="m72.15625 202.746094c-4.070312-1.496094-7.300781-4.480469-9.09375-8.398438-1.332031-2.914062-1.75-6.089844-1.246094-9.1875-1.121094.25-2.230468.605469-3.300781 1.09375-3.964844 1.808594-7 5.035156-8.539063 9.085938-1.539062 4.046875-1.394531 8.433594.398438 12.351562 1.792969 3.921875 5.023438 6.90625 9.09375 8.398438l34.808594 12.765625c.804687.292969 1.679687.261719 2.457031-.09375.785156-.359375 1.378906-.992188 1.683594-1.792969l4.867187-12.8125zm0 0" fill="#cf043c"/><path d="m287.726562 161.679688c.355469-48.960938-35.46875-88.910157-80.007812-89.230469-44.542969-.316407-80.9375 39.109375-81.292969 88.074219-.3125 43.515624 27.953125 79.882812 65.511719 87.667968-.890625 1.554688-1.40625 3.351563-1.40625 5.273438 0 5.878906 4.777344 10.648437 10.671875 10.648437h11.746094c5.894531 0 10.671875-4.769531 10.671875-10.648437 0-1.933594-.523438-3.738282-1.421875-5.300782 37.058593-7.789062 65.21875-43.449218 65.527343-86.484374zm0 0" fill="#abebff"/><path d="m143.769531 168.960938c.351563-48.960938 36.746094-88.394532 81.289063-88.074219 8.066406.058593 15.84375 1.421875 23.171875 3.894531-11.867188-7.734375-25.707031-12.226562-40.511719-12.332031-44.542969-.316407-80.9375 39.109375-81.292969 88.074219-.289062 40.0625 23.65625 74.050781 56.769531 85.265624-23.804687-15.546874-39.660156-44.175781-39.425781-76.828124zm0 0" fill="#76d8ff"/><path d="m207.082031 196.050781c-.863281 0-1.667969-.335937-2.277343-.933593l-26.347657-26.03125c-3.085937-3.046876-4.785156-7.101563-4.785156-11.40625 0-4.308594 1.699219-8.359376 4.785156-11.402344 3.082031-3.050782 7.183594-4.726563 11.546875-4.726563 4.359375 0 8.460938 1.675781 11.550782 4.726563l5.527343 5.460937 5.53125-5.460937c3.085938-3.050782 7.183594-4.726563 11.546875-4.726563 4.359375 0 8.460938 1.675781 11.546875 4.726563 3.082031 3.042968 4.78125 7.097656 4.78125 11.402344 0 4.308593-1.695312 8.359374-4.78125 11.40625l-26.351562 26.03125c-.609375.597656-1.417969.933593-2.273438.933593zm0 0" fill="#ff812c"/><path d="m194.074219 158.292969c-3.085938-3.050781-4.789063-7.101563-4.789063-11.40625 0-1.84375.332032-3.636719.929688-5.328125-.074219 0-.140625-.007813-.214844-.007813-4.363281 0-8.460938 1.675781-11.542969 4.726563-3.089843 3.042968-4.789062 7.097656-4.789062 11.402344 0 4.308593 1.699219 8.359374 4.789062 11.40625l26.34375 26.03125c.609375.597656 1.414063.933593 2.277344.933593.859375 0 1.667969-.335937 2.273437-.933593l10.996094-10.863282zm0 0" fill="#ff6700"/><path d="m188.628906 398.515625c0-1.175781.175782-2.308594.488282-3.382813h-28.609376c-5.699218 0-10.320312 4.601563-10.320312 10.28125v6.851563c0 5.675781 4.621094 10.28125 10.320312 10.28125h28.121094zm0 0" fill="#ffc987"/><path d="m172.324219 412.265625v-6.851563c0-5.679687 4.617187-10.28125 10.320312-10.28125h-22.136719c-5.699218 0-10.320312 4.601563-10.320312 10.28125v6.851563c0 5.675781 4.621094 10.28125 10.320312 10.28125h22.136719c-5.703125 0-10.320312-4.605469-10.320312-10.28125zm0 0" fill="#ffaf68"/><path d="m200.113281 437.609375c-6.332031 0-11.484375-5.449219-11.484375-12.148437v-3.554688h-28.121094c-5.699218 0-10.320312 4.601562-10.320312 10.277344v6.851562c0 5.679688 4.621094 10.28125 10.320312 10.28125h41.273438c5.695312 0 10.316406-4.605468 10.316406-10.28125v-6.851562c0-1.414063-.285156-2.761719-.804687-3.984375-1.175781 5.382812-5.738281 9.410156-11.179688 9.410156zm0 0" fill="#ffaf68"/><path d="m172.324219 439.035156v-6.851562c0-5.679688 4.617187-10.277344 10.320312-10.277344h-22.136719c-5.699218 0-10.320312 4.601562-10.320312 10.277344v6.851562c0 5.679688 4.621094 10.28125 10.320312 10.28125h22.136719c-5.703125 0-10.320312-4.601562-10.320312-10.28125zm0 0" fill="#ffa05f"/><path d="m212.097656 465.808594c0 5.675781-4.617187 10.277344-10.316406 10.277344h-41.273438c-5.699218 0-10.320312-4.601563-10.320312-10.277344v-6.851563c0-5.679687 4.621094-10.277343 10.320312-10.277343h41.273438c5.699219 0 10.316406 4.597656 10.316406 10.277343zm0 0" fill="#ffc987"/><path d="m172.324219 465.808594v-6.851563c0-5.679687 4.617187-10.277343 10.320312-10.277343h-22.136719c-5.699218 0-10.320312 4.597656-10.320312 10.277343v6.851563c0 5.675781 4.621094 10.277344 10.320312 10.277344h22.136719c-5.703125 0-10.320312-4.601563-10.320312-10.277344zm0 0" fill="#ffaf68"/><path d="m274.261719 405.527344h-16.183594c-3.949219 0-7.160156-3.175782-7.160156-7.082032 0-6.890624-5.550781-12.675781-12.441407-13.050781-.140624-.019531-.28125-.03125-.425781-.03125h-37.265625c-7.253906 0-13.15625 5.898438-13.15625 13.152344v26.941406c0 7.253907 5.597656 13.152344 12.484375 13.152344 6.882813 0 12.484375-5.898437 12.484375-13.152344v-6.46875c0-4.296875 2-7.148437 3.324219-7.148437h4.632813c1.738281 6.234375 7 22.160156 27 22.160156h26.707031zm0 0" fill="#f8d5ab"/><path d="m278.339844 395.585938c-2.792969 0-5.078125 2.285156-5.078125 5.074218v62.027344c0 2.792969 2.285156 5.074219 5.078125 5.074219h61.875c2.792968 0 5.078125-2.28125 5.078125-5.074219v-62.027344c0-2.789062-2.285157-5.074218-5.078125-5.074218zm0 0" fill="#0052ac"/><path d="m293.976562 462.6875v-62.027344c0-2.789062 2.285157-5.074218 5.078126-5.074218h-20.714844c-2.792969 0-5.078125 2.285156-5.078125 5.074218v62.027344c0 2.792969 2.285156 5.074219 5.078125 5.074219h20.714844c-2.792969 0-5.078126-2.28125-5.078126-5.074219zm0 0" fill="#003c72"/><path d="m76.296875 368.992188c-1.183594 1.183593-3.121094 1.183593-4.308594 0l-18.671875-18.664063c-1.183594-1.183594-1.183594-3.121094 0-4.304687l18.671875-18.660157c1.1875-1.1875 3.125-1.1875 4.308594 0l18.671875 18.660157c1.1875 1.183593 1.1875 3.121093 0 4.304687zm0 0" fill="#ffcb00"/><path d="m333.632812 363.453125c-1.183593 1.183594-3.121093 1.183594-4.308593 0l-14.523438-14.515625c-1.183593-1.1875-1.183593-3.125 0-4.308594l14.523438-14.515625c1.1875-1.1875 3.125-1.1875 4.308593 0l14.523438 14.515625c1.1875 1.183594 1.1875 3.121094 0 4.308594zm0 0" fill="#ff6700"/><path d="m106.625 444.207031c-1.183594 1.183594-3.121094 1.183594-4.308594 0l-13.832031-13.824219c-1.183594-1.183593-1.183594-3.125 0-4.308593l13.832031-13.824219c1.1875-1.183594 3.125-1.183594 4.308594 0l13.835938 13.824219c1.183593 1.183593 1.183593 3.125 0 4.308593zm0 0" fill="#ff6666"/><path d="m389.351562 98.566406c-1.183593 1.1875-3.125 1.1875-4.308593 0l-13.832031-13.824218c-1.183594-1.183594-1.183594-3.121094 0-4.304688l13.832031-13.824219c1.183593-1.183593 3.125-1.183593 4.308593 0l13.832032 13.824219c1.1875 1.183594 1.1875 3.121094 0 4.304688zm0 0" fill="#ffcb00"/><path d="m26.03125 68.117188c-1.183594 1.183593-3.125 1.183593-4.308594 0l-13.832031-13.828126c-1.183594-1.183593-1.183594-3.121093 0-4.304687l13.832031-13.824219c1.183594-1.183594 3.125-1.183594 4.308594 0l13.832031 13.824219c1.1875 1.183594 1.1875 3.121094 0 4.304687zm0 0" fill="#ffcb00"/></g></defs><g fi:class="KUsePattern"><pattern id="pattern_L1_16" width="350" height="350" patternUnits="userSpaceOnUse"><use xlink:href="#L1_16" x="-350" y="-350"/><use xlink:href="#L1_16" x="0" y="-350"/><use xlink:href="#L1_16" x="350" y="-350"/><use xlink:href="#L1_16" x="-350" y="0"/><use xlink:href="#L1_16" x="0" y="0"/><use xlink:href="#L1_16" x="350" y="0"/><use xlink:href="#L1_16" x="-350" y="350"/><use xlink:href="#L1_16" x="0" y="350"/><use xlink:href="#L1_16" x="350" y="350"/></pattern><rect x="0" y="0" width="100%" height="100%" fill="url(#pattern_L1_16)"/></g><g fi:class="KUsePattern"><pattern id="pattern_L1_17" width="350" height="350" patternUnits="userSpaceOnUse"><use xlink:href="#L1_17" x="-350" y="-350"/><use xlink:href="#L1_17" x="0" y="-350"/><use xlink:href="#L1_17" x="350" y="-350"/><use xlink:href="#L1_17" x="-350" y="0"/><use xlink:href="#L1_17" x="0" y="0"/><use xlink:href="#L1_17" x="350" y="0"/><use xlink:href="#L1_17" x="-350" y="350"/><use xlink:href="#L1_17" x="0" y="350"/><use xlink:href="#L1_17" x="350" y="350"/></pattern><rect x="0" y="0" width="100%" height="100%" fill="url(#pattern_L1_17)"/></g><g fi:class="KUsePattern"><pattern id="pattern_L1_20" width="350" height="350" patternUnits="userSpaceOnUse"><use xlink:href="#L1_20" x="-350" y="-350"/><use xlink:href="#L1_20" x="0" y="-350"/><use xlink:href="#L1_20" x="350" y="-350"/><use xlink:href="#L1_20" x="-350" y="0"/><use xlink:href="#L1_20" x="0" y="0"/><use xlink:href="#L1_20" x="350" y="0"/><use xlink:href="#L1_20" x="-350" y="350"/><use xlink:href="#L1_20" x="0" y="350"/><use xlink:href="#L1_20" x="350" y="350"/></pattern><rect x="0" y="0" width="100%" height="100%" fill="url(#pattern_L1_20)"/></g></svg>